HIERARCHY
ROOT Hips
{
	OFFSET 151.697800 93.143646 -72.043053
	CHANNELS 6 Xposition Yposition Zposition Zrotation Yrotation Xrotation 
	JOINT RightUpLeg
	{
		OFFSET 0.103458 1.857831 10.548505
		CHANNELS 3 Xrotation Yrotation Zrotation
		JOINT RightLeg
		{
			OFFSET 43.500000 -0.000031 0.000002
			CHANNELS 3 Xrotation Yrotation Zrotation
			JOINT RightFoot
			{
				OFFSET 42.372200 0.000023 0.000003
				CHANNELS 3 Xrotation Yrotation Zrotation
				JOINT RightToe
				{
					OFFSET 17.299997 -0.000001 -0.000010
					CHANNELS 3 Xrotation Yrotation Zrotation
					End Site
					{
						OFFSET 0.000000 0.000000 0.000000
					}
				}
			}
		}
	}
	JOINT LeftUpLeg
	{
		OFFSET 0.103457 1.857828 -10.548510
		CHANNELS 3 Xrotation Yrotation Zrotation
		JOINT LeftLeg
		{
			OFFSET 43.500046 -0.000015 0.000002
			CHANNELS 3 Xrotation Yrotation Zrotation
			JOINT LeftFoot
			{
				OFFSET 42.372261 -0.000008 0.000023
				CHANNELS 3 Xrotation Yrotation Zrotation
				JOINT LeftToe
				{
					OFFSET 17.299990 -0.000007 -0.000002
					CHANNELS 3 Xrotation Yrotation Zrotation
					End Site
					{
						OFFSET 0.000000 0.000000 0.000000
					}
				}
			}
		}
	}
	JOINT Spine
	{
		OFFSET 6.901967 -2.603726 -0.000001
		CHANNELS 3 Xrotation Yrotation Zrotation
		JOINT Spine1
		{
			OFFSET 12.588100 -0.000009 -0.000003
			CHANNELS 3 Xrotation Yrotation Zrotation
			JOINT Spine2
			{
				OFFSET 12.343202 0.000008 0.000008
				CHANNELS 3 Xrotation Yrotation Zrotation
				JOINT Neck
				{
					OFFSET 25.832897 -0.000015 -0.000004
					CHANNELS 3 Xrotation Yrotation Zrotation
					JOINT Head
					{
						OFFSET 11.766609 0.000013 -0.000006
						CHANNELS 3 Xrotation Yrotation Zrotation
						End Site
						{
							OFFSET 0.000000 0.000000 0.000000
						}
					}
				}
				JOINT RightShoulder
				{
					OFFSET 19.745911 -1.480373 6.000098
					CHANNELS 3 Xrotation Yrotation Zrotation
					JOINT RightArm
					{
						OFFSET 11.284123 -0.000007 -0.000032
						CHANNELS 3 Xrotation Yrotation Zrotation
						JOINT RightForeArm
						{
							OFFSET 33.000050 0.000005 0.000031
							CHANNELS 3 Xrotation Yrotation Zrotation
							JOINT RightHand
							{
								OFFSET 25.200008 0.000017 0.000013
								CHANNELS 3 Xrotation Yrotation Zrotation
								End Site
								{
									OFFSET 0.000000 0.000000 0.000000
								}
							}
						}
					}
				}
				JOINT LeftShoulder
				{
					OFFSET 19.746092 -1.480379 -6.000077
					CHANNELS 3 Xrotation Yrotation Zrotation
					JOINT LeftArm
					{
						OFFSET 11.284136 -0.000017 -0.000017
						CHANNELS 3 Xrotation Yrotation Zrotation
						JOINT LeftForeArm
						{
							OFFSET 33.000099 0.000019 0.000015
							CHANNELS 3 Xrotation Yrotation Zrotation
							JOINT LeftHand
							{
								OFFSET 25.199780 0.000140 0.000408
								CHANNELS 3 Xrotation Yrotation Zrotation
								End Site
								{
									OFFSET 0.000000 0.000000 0.000000
								}
							}
						}
					}
				}
			}
		}
	}
}
MOTION
Frames: 5
Frame Time: 0.033333
144.639893 84.174057 489.452606 92.238426 -2.620067 -146.711002 149.688213 4.194597 172.516781 -29.529852 -3.301181 -8.969109 67.214512 9.215341 7.352834 21.454560 0.003120 0.000018 -168.479621 3.706806 -171.618024 -42.831853 0.247408 0.557599 74.871325 0.724990 3.840355 21.454555 -0.003092 -0.000000 8.168163 -0.674791 1.191893 6.309487 -1.413228 2.345515 5.991559 -1.399189 2.354004 12.604059 1.219703 7.713814 -3.421099 -4.580273 9.123072 -158.894311 -73.448043 -23.062007 24.089271 56.992342 62.108611 -27.590848 -16.525141 1.308317 8.739151 3.395510 15.643987 171.791511 79.031723 -6.799488 -39.755492 -52.247068 2.177326 -65.045100 15.922933 -2.355516 0.013250 3.678768 -29.998362 
148.303696 83.815041 486.721008 92.425724 -3.981707 -145.872610 150.167310 4.999804 172.346068 -36.362547 -3.878937 -8.894504 73.212661 8.464800 6.772574 21.454558 0.003106 0.000017 -172.497821 5.792011 -170.237588 -55.993621 -1.285544 0.516687 68.911828 2.158157 7.026265 21.454558 -0.003095 0.000001 8.243051 -0.965140 1.020470 6.457026 -1.985425 1.985968 6.138923 -1.973543 1.997917 13.144096 1.155112 7.847194 -3.337124 -4.917495 9.333774 -159.798915 -73.572940 -22.132241 20.690296 57.642917 59.908477 -29.083188 -17.131583 1.374484 8.639906 3.628875 15.452661 172.149413 78.619015 -6.447802 -38.358807 -53.685150 -0.823357 -60.643747 16.983899 -2.258040 0.444437 4.587725 -28.215629 
151.809296 84.023773 483.921509 92.526448 -5.288625 -145.659494 152.743643 6.079095 171.091198 -39.102297 -3.463572 -8.386708 77.475751 7.675201 6.473588 21.454558 0.003108 0.000019 -177.674503 7.679197 -171.816264 -67.861160 -1.747730 0.911560 62.888461 2.312958 6.984385 21.454543 -0.003091 -0.000001 8.305479 -1.220758 0.884382 6.581203 -2.489589 1.698508 6.262936 -2.479423 1.713510 13.717672 0.803959 8.126248 -3.040216 -5.700939 9.771475 -160.269405 -73.525586 -21.650390 16.967998 58.417727 56.964966 -31.911132 -18.011100 1.487570 9.791088 3.874515 15.109582 171.438199 78.896540 -7.162593 -38.414090 -55.076972 -3.844007 -53.577032 17.803368 -2.057437 1.151173 5.850186 -26.174064 
155.261307 84.755257 481.220093 92.753778 -6.037006 -145.127696 156.384489 7.235796 172.573185 -39.131639 -3.774950 -8.831102 80.167344 7.647229 5.911844 21.454558 0.003120 0.000018 176.598093 8.349002 -174.273902 -76.580108 -1.738014 1.090438 64.241870 2.131560 7.056239 21.454543 -0.003091 0.000002 8.336037 -1.307595 0.612518 6.647697 -2.648015 1.149435 6.329302 -2.641169 1.165407 14.008515 0.023609 8.797754 -1.946730 -5.621396 10.342170 -160.102721 -73.354435 -21.823853 12.893696 59.162156 53.481645 -35.285826 -18.851559 1.617339 8.608873 2.189466 14.879238 170.922028 78.741064 -7.691959 -39.213223 -55.837155 -6.702043 -44.889619 17.644173 -1.767524 3.114258 6.336771 -23.663628 
158.750000 85.865547 478.584808 93.248775 -6.312036 -143.868605 161.105298 7.900302 174.549992 -37.128734 -4.086457 -8.889553 81.847284 7.531917 5.728740 21.454560 0.003099 0.000017 170.955591 8.081212 -175.751450 -81.841533 -1.754197 1.461386 66.483955 0.862142 4.830597 21.454550 -0.003092 -0.000003 8.360248 -1.246843 0.309186 6.703254 -2.509383 0.545979 6.384849 -2.506171 0.561125 14.650887 0.208275 9.267340 -0.856003 -6.349460 10.929823 -161.524398 -73.697413 -20.361021 9.433992 59.758063 49.562342 -39.983227 -19.605068 1.785364 8.124513 -0.046440 15.305020 172.232509 77.747695 -6.388687 -38.483007 -56.428031 -9.292758 -35.964761 16.475559 -1.453049 5.079492 5.706644 -21.241521 
